<svg width="64" height="64" viewBox="0 0 64 64" fill="none" xmlns="http://www.w3.org/2000/svg">
  <rect width="64" height="64" rx="12" fill="url(#gradient)"/>
  <path d="M32 16C23.163 16 16 23.163 16 32C16 40.837 23.163 48 32 48C40.837 48 48 40.837 48 32C48 23.163 40.837 16 32 16ZM32 20C38.627 20 44 25.373 44 32C44 38.627 38.627 44 32 44C25.373 44 20 38.627 20 32C20 25.373 25.373 20 32 20Z" fill="white"/>
  <path d="M28 28C28 26.343 29.343 25 31 25H33C34.657 25 36 26.343 36 28V36C36 37.657 34.657 39 33 39H31C29.343 39 28 37.657 28 36V28Z" fill="white"/>
  <circle cx="32" cy="32" r="3" fill="white"/>
  <defs>
    <linearGradient id="gradient" x1="0" y1="0" x2="64" y2="64" gradientUnits="userSpaceOnUse">
      <stop stop-color="#3B82F6"/>
      <stop offset="0.5" stop-color="#8B5CF6"/>
      <stop offset="1" stop-color="#EC4899"/>
    </linearGradient>
  </defs>
</svg>
